<?xml version="1.0" encoding="UTF-8"?><svg id="Layer_1" xmlns="http://www.w3.org/2000/svg" xmlns:xlink="http://www.w3.org/1999/xlink" viewBox="0 0 60.89 37.47"><defs><style>.cls-1{fill:url(#linear-gradient-2);}.cls-2{fill:#fff;}.cls-3{fill:url(#linear-gradient-3);}.cls-4{fill:url(#linear-gradient);}</style><linearGradient id="linear-gradient" x1="6.34" y1="-4265.55" x2="23.54" y2="-4265.55" gradientTransform="translate(0 -4248) scale(1 -1)" gradientUnits="userSpaceOnUse"><stop offset="0" stop-color="#fff"/><stop offset=".41" stop-color="#d1d3d4"/><stop offset=".8" stop-color="#f1f2f2"/><stop offset="1" stop-color="#d1d3d4"/></linearGradient><linearGradient id="linear-gradient-2" x1="7.97" y1="-4267.7" x2="18.15" y2="-4267.7" gradientTransform="translate(0 -4248) scale(1 -1)" gradientUnits="userSpaceOnUse"><stop offset="0" stop-color="#ed1c24"/><stop offset=".04" stop-color="#df1c24"/><stop offset=".12" stop-color="#cc1c24"/><stop offset=".2" stop-color="#c11c24"/><stop offset=".28" stop-color="#bd1c24"/><stop offset=".67" stop-color="#ed1c24"/><stop offset=".89" stop-color="#bc1c24"/><stop offset="1" stop-color="#ab3e3a"/></linearGradient><linearGradient id="linear-gradient-3" x1="22.53" y1="-4258.13" x2="16.45" y2="-4268.66" gradientTransform="translate(0 -4248) scale(1 -1)" gradientUnits="userSpaceOnUse"><stop offset="0" stop-color="#006838"/><stop offset="0" stop-color="#006838"/><stop offset=".28" stop-color="#006838"/><stop offset=".38" stop-color="#006838"/><stop offset=".67" stop-color="#006838"/><stop offset=".89" stop-color="#009444"/><stop offset="1" stop-color="#006838"/></linearGradient></defs><g><g><path class="cls-2" d="M26.11,15.14v-4.78h1.83c.25,0,.47,.05,.67,.16,.2,.11,.35,.25,.47,.43,.11,.18,.17,.39,.17,.61,0,.26-.07,.49-.21,.69-.14,.2-.33,.35-.56,.43v-.16c.3,.1,.55,.25,.74,.48s.28,.5,.28,.83c0,.27-.06,.51-.18,.7-.12,.2-.29,.35-.5,.45-.21,.1-.45,.16-.72,.16h-1.97Zm.38-2.7h1.44c.17,0,.32-.04,.46-.12,.14-.08,.25-.18,.33-.32,.08-.13,.12-.29,.12-.46,0-.25-.09-.44-.26-.59-.17-.15-.39-.23-.65-.23h-1.44v1.71Zm0,2.32h1.46c.21,0,.4-.04,.57-.11,.17-.07,.3-.18,.4-.32,.1-.14,.15-.3,.15-.5s-.04-.37-.13-.52c-.09-.16-.21-.28-.36-.37-.15-.09-.32-.14-.51-.14h-1.57v1.95Z"/><path class="cls-2" d="M30.4,15.14l1.79-4.4h-2.25v-.38h2.67v.38l-1.79,4.4h-.41Z"/><path class="cls-2" d="M33.88,15.14l1.79-4.4h-2.25v-.38h2.67v.38l-1.79,4.4h-.41Z"/><path class="cls-2" d="M37.37,15.14l1.79-4.4h-2.25v-.38h2.67v.38l-1.79,4.4h-.41Z"/></g><g><path class="cls-2" d="M26.11,24.51v-7.51h4.64v.58h-4.04v2.85h3.42v.58h-3.42v2.91h4.04v.58h-4.64Z"/><path class="cls-2" d="M32,24.51v-7.51h.6v3.57l3.57-3.57h.79l-3.59,3.61,3.91,3.9h-.8l-3.88-3.84v3.84h-.6Z"/><path class="cls-2" d="M40.22,24.66c-.39,0-.76-.08-1.09-.24-.33-.16-.61-.38-.85-.66-.23-.28-.4-.61-.49-.97l.57-.16c.08,.29,.21,.55,.4,.76,.19,.21,.41,.38,.66,.5,.25,.12,.52,.17,.8,.17,.37,0,.69-.09,.98-.26s.52-.41,.69-.7c.17-.29,.25-.61,.25-.95s-.09-.69-.27-.98c-.18-.29-.41-.52-.7-.69s-.61-.26-.95-.26c-.37,0-.7,.09-.98,.26-.28,.17-.5,.4-.68,.67l-.57-.28,.23-3.88h3.98v.58h-3.76l.35-.33-.22,3.53-.18-.25c.22-.27,.49-.48,.81-.64,.32-.16,.67-.24,1.04-.24,.46,0,.88,.11,1.25,.33,.38,.22,.68,.52,.9,.9,.22,.38,.34,.8,.34,1.26s-.11,.87-.34,1.25c-.23,.38-.54,.69-.92,.91-.38,.23-.81,.34-1.26,.34Z"/><path class="cls-2" d="M46.53,24.66c-.47,0-.89-.11-1.27-.34s-.69-.53-.91-.92-.34-.81-.34-1.29v-2.71c0-.48,.11-.91,.34-1.3,.23-.39,.53-.7,.92-.92s.82-.34,1.3-.34c.44,0,.85,.11,1.23,.32,.37,.21,.67,.49,.89,.85l-.48,.35c-.17-.28-.4-.5-.69-.67-.29-.17-.61-.25-.95-.25-.37,0-.7,.09-1,.27-.29,.18-.52,.42-.69,.71-.17,.29-.26,.61-.26,.96v1.77l-.18-.21c.22-.38,.52-.68,.89-.91s.79-.35,1.24-.35,.88,.11,1.25,.34c.38,.22,.68,.53,.9,.9,.22,.38,.33,.8,.33,1.25s-.11,.88-.34,1.26c-.23,.38-.53,.68-.91,.91-.38,.23-.8,.34-1.26,.34Zm0-.59c.35,0,.68-.09,.97-.26s.52-.4,.69-.69c.17-.29,.26-.61,.26-.97s-.09-.68-.26-.97c-.17-.29-.4-.52-.69-.69s-.61-.26-.97-.26-.68,.09-.97,.26-.52,.4-.69,.69c-.17,.29-.26,.61-.26,.97s.09,.68,.26,.97c.17,.29,.4,.52,.69,.69s.61,.26,.97,.26Z"/><path class="cls-2" d="M53.85,24.51v-1.52h-3.58v-.59l2.55-5.4h.67l-2.55,5.4h2.91v-2.27h.6v2.27h.86v.59h-.86v1.52h-.6Z"/></g></g><g><path class="cls-4" d="M23.54,10.44h-3.15c-.76,0-1.1,.51-1.1,.51,0,0-9.27,11.32-10.78,12.55-1.32,1.07-2.01,1.16-2.17,1.17h12.26l4.94-14.22Z"/><path class="cls-1" d="M12.95,22.19c.03-.05,2.82-3.87,3-4.22,.18-.35,2.19-3.24,2.19-3.24-.31,.22-.62,.46-.93,.71-3.53,2.8-7.34,7.15-9.25,9.23h3.03c.7-.88,1.53-1.93,1.83-2.32,.07-.09,.12-.15,.12-.16Z"/><path class="cls-3" d="M21.94,15.03l1.52-4.37c-.48,.48-.96,.91-1.32,1.15l-4,2.93c-.15,.22-2,2.89-2.18,3.23-.08,.14-.6,.89-1.19,1.71,.73-.69,2.17-1.89,3.85-2.47,1.19-.41,2.41-1.34,3.33-2.18Z"/><path d="M20.94,17.93c-.72,.56-1.78,1.22-3.28,1.78-1.3,.48-3.26,1.63-4.82,2.63-.3,.39-1.14,1.44-1.83,2.32h2.2c.32-.13,.56-.24,.68-.29,.63-.28,3.8-1.08,5.7-2.52l1.36-3.92Z"/></g></svg>