<?xml version="1.0" encoding="UTF-8"?><svg id="Layer_1" xmlns="http://www.w3.org/2000/svg" viewBox="0 0 300 54.5"><defs><style>.cls-1{fill:#0b2027;}</style></defs><path class="cls-1" d="M7.51,15.91h5.9c1.46-.89,3.28-1.34,5.45-1.34,3.13,0,5.84,1.15,8.13,3.44,2.29-2.29,5.01-3.44,8.13-3.44s5.88,1.12,8.07,3.37c2.19,2.25,3.28,4.98,3.28,8.2v12.11h-6.17v-12.11c0-1.49-.5-2.76-1.5-3.82-1-1.06-2.23-1.59-3.69-1.59s-2.69,.53-3.69,1.59c-1,1.06-1.5,2.33-1.5,3.82v12.11h-6.17v-12.11c0-1.52-.46-2.8-1.39-3.84-.92-1.04-2.1-1.56-3.53-1.56s-2.69,.49-3.69,1.47c-1,.98-1.5,2.22-1.5,3.71v12.34H7.51V15.91Z"/><path class="cls-1" d="M57.92,53h-6.61l5.59-14.79-8.36-22.3h6.61l5.05,13.5,5.1-13.5h6.61l-13.99,37.09Z"/><path class="cls-1" d="M94.88,38.25v-2.5c-2.18,2.56-5.02,3.84-8.54,3.84s-6.41-1.22-8.85-3.66c-2.44-2.44-3.66-5.39-3.66-8.85s1.22-6.41,3.66-8.85c2.44-2.44,5.39-3.66,8.85-3.66s6.36,1.28,8.54,3.84v-2.5h2.46v22.35h-2.46Zm0-7.51v-7.33c-.39-1.28-1.06-2.47-2.01-3.58-1.64-1.88-3.81-2.82-6.53-2.82s-5.14,.98-7.11,2.93c-1.97,1.95-2.95,4.33-2.95,7.13s.98,5.14,2.95,7.11c1.97,1.97,4.34,2.95,7.11,2.95s4.86-.95,6.53-2.86c.95-1.04,1.62-2.22,2.01-3.53Z"/><path class="cls-1" d="M125.18,38.25h-2.46v-2.55c-2.21,2.59-5.07,3.89-8.58,3.89s-6.47-1.23-8.94-3.69c-2.47-2.46-3.71-5.43-3.71-8.92s1.24-6.46,3.71-8.92c2.47-2.46,5.45-3.69,8.94-3.69s6.35,1.28,8.58,3.84V2.5h2.46V38.25Zm-2.46-7.6v-7.37c-.48-1.43-1.15-2.62-2.01-3.58-1.67-1.91-3.86-2.86-6.57-2.86s-5.19,.99-7.17,2.97c-1.98,1.98-2.97,4.37-2.97,7.17s.99,5.19,2.97,7.17c1.98,1.98,4.37,2.97,7.17,2.97s4.87-.97,6.57-2.91c.89-.98,1.56-2.17,2.01-3.58Z"/><path class="cls-1" d="M137.61,39.59l-9.21-23.69h2.68l6.53,16.85,6.57-16.85h2.64l-9.21,23.69Z"/><path class="cls-1" d="M164.92,34.95l1.74,1.7c-2.06,1.97-4.57,2.95-7.55,2.95-3.46,0-6.4-1.22-8.83-3.66-2.43-2.44-3.64-5.38-3.64-8.8s1.22-6.41,3.66-8.87c2.44-2.46,5.38-3.69,8.8-3.69s6.09,1.21,8.16,3.62c2.07,2.41,3.11,5.39,3.11,8.94,0,.57-.02,.98-.04,1.25h-21.14c.33,2.47,1.43,4.55,3.31,6.23,1.88,1.68,4.08,2.53,6.61,2.53,2.32,0,4.26-.73,5.81-2.19Zm-15.73-9.03h18.68c-.24-2.47-1.03-4.47-2.37-5.99-1.67-1.94-3.8-2.91-6.39-2.91s-4.74,.86-6.64,2.57c-1.89,1.71-2.99,3.82-3.28,6.32Z"/><path class="cls-1" d="M176.62,15.91v2.15c2-2.32,4.54-3.49,7.64-3.49,2.8,0,5.18,.99,7.15,2.97,1.97,1.98,2.95,4.36,2.95,7.13v13.59h-2.46v-13.59c0-2.09-.75-3.88-2.23-5.39-1.49-1.5-3.29-2.26-5.41-2.26s-3.92,.75-5.41,2.26c-1.49,1.5-2.23,3.3-2.23,5.39v13.59h-2.46V15.91h2.46Z"/><path class="cls-1" d="M204.07,15.91h5.27v2.46h-5.27v19.89h-2.5V18.37h-3.44v-2.46h3.44V2.5h2.5V15.91Z"/><path class="cls-1" d="M233.12,15.91v13.59c0,2.77-.98,5.15-2.95,7.13-1.97,1.98-4.35,2.97-7.15,2.97s-5.18-.99-7.15-2.97-2.95-4.36-2.95-7.13V15.91h2.46v13.59c0,2.09,.75,3.88,2.26,5.39,1.5,1.5,3.3,2.26,5.39,2.26s3.88-.75,5.39-2.26c1.5-1.5,2.26-3.3,2.26-5.39V15.91h2.46Z"/><path class="cls-1" d="M240.67,15.91v1.25c1.58-1.73,3.38-2.59,5.41-2.59,1.73,0,3.26,.55,4.6,1.65l-1.56,1.92c-.89-.74-1.91-1.12-3.04-1.12-1.28,0-2.5,.63-3.66,1.9-1.16,1.27-1.74,2.7-1.74,4.31v15.02h-2.5V15.91h2.5Z"/><path class="cls-1" d="M268.82,34.95l1.74,1.7c-2.06,1.97-4.57,2.95-7.55,2.95-3.46,0-6.4-1.22-8.83-3.66-2.43-2.44-3.64-5.38-3.64-8.8s1.22-6.41,3.66-8.87c2.44-2.46,5.38-3.69,8.8-3.69s6.08,1.21,8.16,3.62c2.07,2.41,3.11,5.39,3.11,8.94,0,.57-.02,.98-.04,1.25h-21.14c.33,2.47,1.43,4.55,3.31,6.23,1.88,1.68,4.08,2.53,6.61,2.53,2.32,0,4.26-.73,5.81-2.19Zm-15.73-9.03h18.68c-.24-2.47-1.03-4.47-2.37-5.99-1.67-1.94-3.8-2.91-6.39-2.91s-4.75,.86-6.64,2.57c-1.89,1.71-2.99,3.82-3.28,6.32Z"/><path class="cls-1" d="M276.87,32.67l2.41-.54c.15,1.43,.73,2.62,1.74,3.58,1.01,.95,2.19,1.43,3.53,1.43s2.55-.5,3.55-1.5,1.5-2.18,1.5-3.55c0-.95-.27-1.86-.8-2.73-.39-.6-.88-1.03-1.47-1.32-.6-.28-1.62-.62-3.08-1.01-.95-.27-1.64-.48-2.06-.63-.42-.15-.92-.42-1.5-.8-.58-.39-1.05-.86-1.41-1.43-.66-1.04-.98-2.17-.98-3.4,0-1.7,.61-3.16,1.83-4.38,1.22-1.22,2.7-1.83,4.42-1.83,1.52,0,2.86,.49,4.02,1.47,1.16,.98,1.86,2.21,2.1,3.66l-2.41,.49c-.15-.89-.57-1.65-1.27-2.26-.7-.61-1.51-.92-2.44-.92-1.04,0-1.94,.37-2.68,1.1-.74,.73-1.12,1.62-1.12,2.66,0,.72,.21,1.4,.63,2.06,.27,.45,.64,.78,1.12,1.01,.48,.22,1.27,.5,2.37,.83,1.67,.45,2.93,.89,3.8,1.34,.86,.45,1.59,1.13,2.19,2.06,.8,1.28,1.21,2.62,1.21,4.02,0,2.09-.74,3.86-2.21,5.32-1.47,1.46-3.24,2.19-5.3,2.19-1.94,0-3.64-.66-5.09-1.97-1.46-1.31-2.32-2.96-2.59-4.96Z"/></svg>