<?xml version="1.0" encoding="UTF-8"?><svg id="Layer_1" xmlns="http://www.w3.org/2000/svg" xmlns:xlink="http://www.w3.org/1999/xlink" viewBox="0 0 422 95"><defs><style>.cls-1,.cls-2,.cls-3{fill:#fff;}.cls-4,.cls-5{stroke:#bbb;stroke-miterlimit:10;}.cls-4,.cls-6{fill:#0b2027;opacity:.93;}.cls-5{fill:none;}.cls-2{font-family:Manrope-Light, Manrope;font-size:10.08px;font-variation-settings:'wght' 300;}.cls-7{fill:#bbb;}.cls-3{font-family:Poppins-Bold, Poppins;font-size:25px;}</style></defs><rect class="cls-6" x="-.03" y="-.37" width="422.03" height="95.06"/><image width="69" height="69" transform="translate(105.12 32.75) scale(.46)" xlink:href="flight-info1.png"/><line class="cls-5" x1="135.37" y1="48.6" x2="309.65" y2="48.6"/><circle class="cls-4" cx="220.35" cy="48.6" r="2.16"/><circle class="cls-7" cx="309.38" cy="48.49" r="3.32"/><text class="cls-2" transform="translate(204.2 38.24)"><tspan x="0" y="0">2h 15m</tspan></text><g><path class="cls-1" d="M344.12,47.1c-1.37-.82-2.43-1.99-3.17-3.52s-1.11-3.34-1.11-5.43,.37-3.87,1.11-5.4c.74-1.53,1.8-2.71,3.17-3.52,1.37-.82,3-1.23,4.88-1.23,1.26,0,2.45,.2,3.57,.61,1.12,.4,2.09,.98,2.92,1.73,.3,.28,.45,.61,.45,.99,0,.26-.07,.49-.23,.69-.15,.2-.33,.3-.54,.3-.23,0-.5-.1-.82-.31-.96-.75-1.83-1.28-2.61-1.58-.78-.3-1.68-.45-2.69-.45-2.18,0-3.86,.71-5.03,2.13-1.18,1.42-1.76,3.44-1.76,6.05s.59,4.66,1.76,6.08c1.17,1.42,2.85,2.13,5.03,2.13,1,0,1.89-.15,2.68-.45,.79-.3,1.66-.83,2.62-1.58,.32-.21,.59-.31,.82-.31,.21,0,.38,.09,.54,.28,.15,.19,.23,.42,.23,.71,0,.38-.15,.7-.45,.99-.83,.75-1.8,1.33-2.92,1.73-1.12,.4-2.31,.61-3.57,.61-1.88,0-3.51-.41-4.88-1.23Z"/><path class="cls-1" d="M359.97,47.92c-.21-.22-.31-.5-.31-.86V29.35c0-.34,.11-.61,.32-.82,.22-.21,.5-.31,.86-.31h6.68c2.09,0,3.71,.51,4.86,1.52,1.16,1.02,1.73,2.45,1.73,4.31s-.58,3.31-1.75,4.34c-1.17,1.03-2.78,1.55-4.85,1.55h-5.55v7.11c0,.36-.1,.64-.31,.86s-.49,.32-.85,.32-.64-.11-.85-.32Zm7.33-9.88c3.03,0,4.54-1.33,4.54-3.98s-1.51-3.92-4.54-3.92h-5.33v7.89h5.33Z"/><path class="cls-1" d="M382.42,47.92c-.22-.22-.32-.5-.32-.86V30.2h-6.06c-.34,0-.6-.08-.79-.25-.19-.17-.28-.41-.28-.73s.09-.56,.28-.73c.19-.17,.45-.25,.79-.25h14.46c.34,0,.6,.08,.79,.25,.19,.17,.28,.41,.28,.73s-.09,.56-.28,.73c-.19,.17-.45,.25-.79,.25h-6.06v16.86c0,.36-.1,.64-.31,.86-.21,.22-.49,.32-.85,.32s-.64-.11-.86-.32Z"/></g><g><path class="cls-1" d="M16.53,47.25c-.23-.16-.35-.41-.35-.73,0-.6,.33-.9,1-.92l.81-.05c.92-.05,1.61-.34,2.06-.85,.45-.52,.68-1.34,.68-2.48v-13.01c0-.34,.11-.62,.32-.83s.48-.31,.79-.31c.34,0,.61,.1,.81,.31,.2,.21,.3,.48,.3,.83v13.03c0,1.66-.38,2.91-1.14,3.75-.76,.84-1.91,1.3-3.44,1.4l-.81,.05c-.45,.04-.8-.03-1.03-.19Z"/><path class="cls-1" d="M42.71,28.38c.18,.21,.27,.48,.27,.83v17.1c0,.34-.1,.62-.28,.83-.19,.21-.46,.31-.8,.31s-.64-.15-.89-.46l-11.25-15.04v14.36c0,.34-.1,.62-.28,.83s-.45,.31-.77,.31-.58-.1-.76-.31c-.18-.21-.27-.48-.27-.83V29.2c0-.34,.1-.62,.28-.83s.46-.31,.8-.31,.67,.15,.92,.46l11.22,15.04v-14.36c0-.34,.09-.62,.28-.83,.19-.21,.45-.31,.77-.31s.58,.1,.76,.31Z"/><path class="cls-1" d="M61.09,39.12c.6,.8,.91,1.79,.91,2.98,0,1.68-.55,2.97-1.65,3.86-1.1,.89-2.66,1.34-4.69,1.34h-6.83c-.34,0-.62-.1-.83-.3-.21-.2-.31-.46-.31-.79V29.28c0-.32,.1-.59,.31-.79,.21-.2,.48-.3,.83-.3h6.53c1.97,0,3.5,.43,4.58,1.3,1.08,.87,1.63,2.1,1.63,3.69,0,1.03-.27,1.92-.8,2.66-.53,.74-1.28,1.29-2.24,1.65,1.1,.29,1.95,.83,2.56,1.63Zm-11.21-2.44h5.15c1.43,0,2.51-.29,3.24-.87,.73-.58,1.1-1.42,1.1-2.52,0-2.17-1.45-3.25-4.34-3.25h-5.15v6.64Zm8.88,7.95c.71-.55,1.07-1.41,1.07-2.59,0-2.35-1.46-3.52-4.39-3.52h-5.55v6.94h5.55c1.5,0,2.61-.28,3.32-.83Z"/></g><text class="cls-3" transform="translate(16.59 70.97)"><tspan x="0" y="0">15:45 </tspan></text><text class="cls-3" transform="translate(339.59 70.97)"><tspan x="0" y="0">18:00 </tspan></text></svg>