<?xml version="1.0" encoding="utf-8"?>
<!-- Generator: Adobe Illustrator 26.0.1, SVG Export Plug-In . SVG Version: 6.00 Build 0)  -->
<svg version="1.1" id="Layer_1" xmlns="http://www.w3.org/2000/svg" xmlns:xlink="http://www.w3.org/1999/xlink" x="0px" y="0px"
	 viewBox="0 0 945.2 162.8" style="enable-background:new 0 0 945.2 162.8;" xml:space="preserve">
<style type="text/css">
	.st0{fill:#ffffff;}
</style>
<path class="st0" d="M529.6,138.1h-28.3l-4.9,20h-36.9l34-105H538l34.2,105h-37.8L529.6,138.1z M524.2,115.1l-8.4-35h-0.5l-4.1,17.8
	l-4.3,17.2H524.2z"/>
<path class="st0" d="M615.8,78.7h22.6v24.7h-20v54.9h-36.6v-54.9h-10.7V78.7h10.7v-3.2c0-24.2,18-31.8,36.3-31.8
	c10,0,17.3,2.1,21.5,5.2l-2.4,21.2c-2.2-1.8-4.6-2.5-9.1-2.5c-7.6,0-12.2,2.4-12.2,9.9L615.8,78.7z"/>
<path class="st0" d="M710.6,79l-3,29.9c-1.9-1.4-5.7-2.5-10-2.5c-9.5,0-15.7,4.6-15.7,13.7v38.2h-36.6V78.7h32.9l0.8,19.9
	c3.5-13,10.8-21.5,23.4-21.5C707.1,77.1,709.5,78.2,710.6,79z"/>
<rect x="715.8" y="78.7" class="st0" width="36.6" height="79.5"/>
<path class="st0" d="M847.9,104.1l-33.7,9.9c0.3-8.4-1.9-12.2-6.4-12.2c-6.4,0-9.2,4-9.2,17.2c0,13.7,3.8,16.2,9.1,16.2
	c4.6,0,6.7-3.7,7.2-10.5l32.8,10.2c0,13.4-14,25-39.8,25c-30.4,0-46-15-46-41.4s16.1-41.3,44.1-41.3
	C838,77.1,847.5,91.2,847.9,104.1z"/>
<path class="st0" d="M945.2,138l-2.9,18.6c-3.6,2.1-7.6,3.2-11.8,3.2c-12.7,0-22-4.4-25-13.4c-4.6,7.8-13.7,13.4-28.3,13.4
	c-16.7,0-24.5-6.8-24.5-18.9c0-13.2,8.4-20.7,31-25.6l15.8-3.5v-3.2c0-4.9-2.5-7.8-7.2-7.8c-4.5,0-8.1,1.9-8.4,9.7l-30.2-4.6
	c1.6-17.8,14.8-28.8,40.7-28.8c28.5,0,41.4,11,41.4,32.8v22.3c0,4.5,1.9,6.5,5.4,6.5C942.6,138.7,943.9,138.5,945.2,138z
	 M899.5,132.1v-7.6l-5.2,1.6c-4.5,1.3-7.2,4.3-7.2,8.3c0,3.8,2.5,5.6,5.6,5.6C896.5,139.9,899.5,137.3,899.5,132.1L899.5,132.1z"/>
<circle class="st0" cx="735.3" cy="53.2" r="19.2"/>
<circle class="st0" cx="438.8" cy="138.2" r="19.2"/>
<polygon class="st0" points="0,0.8 0,37.9 20,37.9 20,123 0,123 0,156.5 107.9,156.5 107.9,122.9 86.4,122.9 86.4,37.7 107.9,37.7 
	107.9,0.8 "/>
<path class="st0" d="M113.9,37.9v33.8h15v51.2h-15v33.6h83.6v-33.6h-15.7V93.8c0-14.6,9.1-22.3,24.6-22.3c10.7,0,14.2,8.5,14.2,17.5
	v34h-15.5v33.6h82.5v-33.6H273V76.1c0-23.7-17.4-36.9-42.4-36.9c-38.4,0-51.2,24.5-51.2,24.5V37.9H113.9z"/>
<path class="st0" d="M376.5,93l46.2-5c0,0-1.8-50.1-64.4-50.1c-51.2,0-74.9,31.1-74.9,60.9c0,39.4,32.8,60.9,71.4,60.9
	c69.1,0,67.9-46.2,67.9-46.2h-44.8c0,0,0,18.1-19.8,18.1c-18.6,0-21.4-17.6-21.4-26.9V93.6c0-11.8,3.3-26.6,20-26.6
	C380,67,376.5,93,376.5,93z"/>
</svg>
